<svg xmlns="http://www.w3.org/2000/svg" xmlns:xlink="http://www.w3.org/1999/xlink" version="1.1" x="0px" y="0px" viewBox="0 0 48 60" style="enable-background:new 0 0 48 48;" xml:space="preserve"><style type="text/css">
	.st0{fill:#010101;}
</style><g><path class="st0" d="M33,22h-4.2l3-3c0.8-0.8,0.8-2,0-2.8c-0.8-0.8-2-0.8-2.8,0l-3,3V15c0-1.1-0.9-2-2-2s-2,0.9-2,2v4.2l-3-3   c-0.8-0.8-2-0.8-2.8,0c-0.8,0.8-0.8,2,0,2.8l3,3H15c-1.1,0-2,0.9-2,2s0.9,2,2,2h4.2l-3,3c-0.8,0.8-0.8,2,0,2.8   c0.4,0.4,0.9,0.6,1.4,0.6c0.5,0,1-0.2,1.4-0.6l3-3V33c0,1.1,0.9,2,2,2s2-0.9,2-2v-4.2l3,3c0.4,0.4,0.9,0.6,1.4,0.6   c0.5,0,1-0.2,1.4-0.6c0.8-0.8,0.8-2,0-2.8l-3-3H33c1.1,0,2-0.9,2-2S34,22,33,22z"/><path class="st0" d="M24,9.5c0.5,0,1-0.2,1.4-0.6l5-5c0.8-0.8,0.8-2,0-2.8c-0.8-0.8-2-0.8-2.8,0L24,4.7l-3.7-3.7   c-0.8-0.8-2-0.8-2.8,0c-0.8,0.8-0.8,2,0,2.8l5,5C23,9.2,23.5,9.5,24,9.5z"/><path class="st0" d="M25.4,39.1c-0.7-0.7-2-0.7-2.8,0l-5,5c-0.8,0.8-0.8,2,0,2.8c0.8,0.8,2,0.8,2.8,0l3.7-3.7l3.7,3.7   c0.4,0.4,0.9,0.6,1.4,0.6c0.5,0,1-0.2,1.4-0.6c0.8-0.8,0.8-2,0-2.8L25.4,39.1z"/><path class="st0" d="M46.9,17.6c-0.8-0.8-2-0.8-2.8,0l-5,5c-0.8,0.8-0.8,2,0,2.8l5,5c0.4,0.4,0.9,0.6,1.4,0.6c0.5,0,1-0.2,1.4-0.6   c0.8-0.8,0.8-2,0-2.8L43.3,24l3.7-3.7C47.7,19.6,47.7,18.3,46.9,17.6z"/><path class="st0" d="M3.8,17.6c-0.8-0.8-2-0.8-2.8,0c-0.8,0.8-0.8,2,0,2.8L4.7,24l-3.7,3.7c-0.8,0.8-0.8,2,0,2.8   C1.5,30.8,2,31,2.5,31s1-0.2,1.4-0.6l5-5c0.8-0.8,0.8-2,0-2.8L3.8,17.6z"/></g><text x="0" y="63" fill="#000000" font-size="5px" font-weight="bold" font-family="'Helvetica Neue', Helvetica, Arial-Unicode, Arial, Sans-serif">Created by Vectors Market</text><text x="0" y="68" fill="#000000" font-size="5px" font-weight="bold" font-family="'Helvetica Neue', Helvetica, Arial-Unicode, Arial, Sans-serif">from the Noun Project</text></svg>